<?xml version="1.0" encoding="utf-8"?>
<!-- Generator: Adobe Illustrator 25.4.1, SVG Export Plug-In . SVG Version: 6.00 Build 0)  -->
<svg version="1.1" id="Layer_1" xmlns="http://www.w3.org/2000/svg" xmlns:xlink="http://www.w3.org/1999/xlink" x="0px" y="0px"
	 viewBox="0 0 3685.04 602.89" style="enable-background:new 0 0 3685.04 602.89;" xml:space="preserve">
<style type="text/css">
	.st0{fill:url(#SVGID_1_);}
	.st1{fill:url(#SVGID_00000127024505141164154720000010845686004383683494_);}
	.st2{fill:url(#SVGID_00000017501091042417792210000007376237913290903723_);}
	.st3{fill:url(#SVGID_00000037678398081336518790000016572670701230816677_);}
	.st4{fill:#05131C;}
</style>
<g>
	<g>
		<g>
			<g>
				<linearGradient id="SVGID_1_" gradientUnits="userSpaceOnUse" x1="0" y1="165.9573" x2="331.9121" y2="165.9573">
					<stop  offset="0" style="stop-color:#562582"/>
					<stop  offset="0" style="stop-color:#005C97"/>
					<stop  offset="0.9988" style="stop-color:#383A8E"/>
				</linearGradient>
				<path class="st0" d="M80.02,331.91c-9.02,0-18.04-3.44-24.92-10.33c-73.47-73.47-73.47-193.02,0-266.49
					c73.47-73.47,193.02-73.46,266.49,0c13.77,13.77,13.77,36.08,0,49.85c-13.76,13.77-36.08,13.77-49.85,0
					c-45.99-45.97-120.81-45.97-166.79,0c-45.98,45.99-45.98,120.81,0,166.8c13.77,13.76,13.76,36.08,0,49.85
					C98.06,328.47,89.04,331.91,80.02,331.91z"/>
			</g>
		</g>
		<g>
			<g>
				
					<linearGradient id="SVGID_00000046321656731562336720000013781252282907005373_" gradientUnits="userSpaceOnUse" x1="32.9072" y1="436.9323" x2="364.8204" y2="436.9323">
					<stop  offset="0" style="stop-color:#562582"/>
					<stop  offset="0" style="stop-color:#005C97"/>
					<stop  offset="0.9988" style="stop-color:#383A8E"/>
				</linearGradient>
				<path style="fill:url(#SVGID_00000046321656731562336720000013781252282907005373_);" d="M176.48,602.89
					c-48.26,0-96.51-18.37-133.24-55.1c-13.77-13.77-13.77-36.08,0-49.85c13.76-13.77,36.08-13.77,49.85,0
					c45.99,45.98,120.81,45.97,166.79,0c45.98-45.98,45.98-120.81,0-166.8c-13.76-13.76-13.76-36.08,0-49.85
					c13.77-13.76,36.09-13.76,49.85,0c73.47,73.48,73.47,193.02,0,266.49C272.98,584.52,224.73,602.89,176.48,602.89z"/>
			</g>
		</g>
		<g>
			
				<linearGradient id="SVGID_00000107578300748679396610000016346024274311049877_" gradientUnits="userSpaceOnUse" x1="157.6254" y1="190.8422" x2="217.9234" y2="190.8422">
				<stop  offset="0" style="stop-color:#562582"/>
				<stop  offset="0" style="stop-color:#03B3DA"/>
				<stop  offset="0.9988" style="stop-color:#2FB9D3"/>
			</linearGradient>
			<path style="fill:url(#SVGID_00000107578300748679396610000016346024274311049877_);" d="M218.07,190.84
				c0,16.41-13.3,29.71-29.71,29.71s-29.71-13.3-29.71-29.71c0-16.41,13.3-29.71,29.71-29.71S218.07,174.44,218.07,190.84z"/>
		</g>
		<g>
			
				<linearGradient id="SVGID_00000165937176805459427840000017081401533658700933_" gradientUnits="userSpaceOnUse" x1="3290.7837" y1="-209.8346" x2="3352.3464" y2="-209.8346" gradientTransform="matrix(-1 0 0 -1 3510.0176 208.7547)">
				<stop  offset="0" style="stop-color:#562582"/>
				<stop  offset="0" style="stop-color:#03B3DA"/>
				<stop  offset="0.9988" style="stop-color:#2FB9D3"/>
			</linearGradient>
			<path style="fill:url(#SVGID_00000165937176805459427840000017081401533658700933_);" d="M158.66,418.59
				c0-16.41,13.3-29.71,29.71-29.71s29.71,13.3,29.71,29.71c0,16.41-13.3,29.71-29.71,29.71S158.66,435,158.66,418.59z"/>
		</g>
	</g>
	<g>
		<path class="st4" d="M525.83,457.67c-13.35-7.42-13.35-14.33-4.45-34.1c10.88-23.73,15.32-24.23,26.7-19.78
			c21.26,8.89,59.32,20.75,88.49,20.75c49.43,0,82.06-15.32,82.06-46.96c0-23.23-30.15-35.09-71.68-52.89
			c-33.12-14.34-63.77-26.21-89.48-50.93c-18.29-17.31-27.68-39.55-27.68-65.74c0-75.64,64.76-100.85,131.5-100.85
			c41.53,0,85.52,18.77,102.82,29.16c10.88,6.43,10.38,12.85,2.47,31.64c-9.39,22.74-14.83,26.69-27.19,21.25
			c-19.28-8.4-49.93-21.75-79.59-21.75c-37.57,0-61.79,13.35-61.79,40.05c0,34.12,64.26,55.87,87.5,65.75
			c25.21,9.89,49.43,20.26,67.72,35.09c20.27,16.81,33.62,38.56,33.62,69.21c0,32.14-14.34,62.29-43.5,82.06
			c-24.22,16.81-59.32,25.22-106.78,25.22C595.53,484.87,552.03,472,525.83,457.67z"/>
		<path class="st4" d="M899.1,478.44c-12.85,0-30.65-12.85-42.02-23.73c-10.88-10.39-21.26-26.7-21.26-37.57V114.1h234.81
			c13.35,0,15.32,11.38,15.32,30.16c0,19.27-1.98,30.16-15.32,30.16H904.04v85.51h155.22c13.35,0,15.32,11.38,15.32,30.15
			c0,19.29-1.98,30.16-15.32,30.16H904.04v88.98c0,6.92,3.95,8.9,9.89,8.9h160.17c13.35,0,15.32,11.38,15.32,30.15
			c0,19.29-1.98,30.16-15.32,30.16H899.1z"/>
		<path class="st4" d="M1198.21,478.44c-12.85,0-30.65-12.85-42.02-23.73c-10.88-10.39-21.26-26.7-21.26-37.57V114.1h234.81
			c13.35,0,15.32,11.38,15.32,30.16c0,19.27-1.98,30.16-15.32,30.16h-166.59v85.51h155.22c13.35,0,15.32,11.38,15.32,30.15
			c0,19.29-1.98,30.16-15.32,30.16h-155.22v88.98c0,6.92,3.95,8.9,9.89,8.9h160.17c13.35,0,15.32,11.38,15.32,30.15
			c0,19.29-1.98,30.16-15.32,30.16H1198.21z"/>
		<path class="st4" d="M1436.02,457.67c-13.35-7.42-13.35-14.33-4.45-34.1c10.88-23.73,15.32-24.23,26.7-19.78
			c21.26,8.89,59.32,20.75,88.49,20.75c49.43,0,82.06-15.32,82.06-46.96c0-23.23-30.15-35.09-71.68-52.89
			c-33.12-14.34-63.77-26.21-89.48-50.93c-18.29-17.31-27.68-39.55-27.68-65.74c0-75.64,64.76-100.85,131.5-100.85
			c41.52,0,85.52,18.77,102.82,29.16c10.88,6.43,10.38,12.85,2.47,31.64c-9.39,22.74-14.83,26.69-27.19,21.25
			c-19.28-8.4-49.93-21.75-79.59-21.75c-37.57,0-61.79,13.35-61.79,40.05c0,34.12,64.26,55.87,87.5,65.75
			c25.21,9.89,49.43,20.26,67.73,35.09c20.27,16.81,33.61,38.56,33.61,69.21c0,32.14-14.33,62.29-43.5,82.06
			c-24.22,16.81-59.32,25.22-106.78,25.22C1505.72,484.87,1462.22,472,1436.02,457.67z"/>
		<path class="st4" d="M3424.03,457.67c-13.35-7.42-13.35-14.33-4.45-34.1c10.88-23.73,15.32-24.23,26.7-19.78
			c21.26,8.89,59.32,20.75,88.49,20.75c49.43,0,82.06-15.32,82.06-46.96c0-23.23-30.15-35.09-71.68-52.89
			c-33.12-14.34-63.77-26.21-89.48-50.93c-18.29-17.31-27.68-39.55-27.68-65.74c0-75.64,64.76-100.85,131.5-100.85
			c41.52,0,85.52,18.77,102.82,29.16c10.88,6.43,10.38,12.85,2.47,31.64c-9.39,22.74-14.83,26.69-27.19,21.25
			c-19.28-8.4-49.93-21.75-79.59-21.75c-37.57,0-61.79,13.35-61.79,40.05c0,34.12,64.26,55.87,87.5,65.75
			c25.21,9.89,49.43,20.26,67.73,35.09c20.27,16.81,33.61,38.56,33.61,69.21c0,32.14-14.33,62.29-43.5,82.06
			c-24.22,16.81-59.32,25.22-106.78,25.22C3493.73,484.87,3450.23,472,3424.03,457.67z"/>
		<path class="st4" d="M1780.61,478.44h-69.21l133.97-364.34h52.4l133.47,364.34h-69.71l-24.7-73.16h-130.02L1780.61,478.44z
			 M1827.07,344.96h88.98l-43.5-125.06L1827.07,344.96z"/>
		<path class="st4" d="M2329.38,413.68c2.48-15.82,5.93-54.88,8.9-68.72l50.42-230.86h67.73l-75.14,333.69
			c-5.93,26.19-22.25,35.11-51.41,35.11c-22.76,0-45-7.42-51.42-34.12l-32.14-151.76c-3.46-16.82-6.43-52.9-9.89-71.69
			c-2.48,19.78-5.43,47.96-10.88,72.66l-31.64,150.78c-5.93,28.67-27.2,34.12-50.92,34.12c-29.66,0-46.46-8.91-52.39-35.11
			l-74.65-333.69h67.23l50.92,230.86c3.45,14.83,7.41,52.4,9.39,68.72h0.99c2.97-15.33,9.89-54.88,12.35-67.73l44-216.52h71.19
			l44.98,215.05c3.96,19.27,8.92,55.37,11.38,69.21H2329.38z"/>
		<path class="st4" d="M2558.3,478.44c-12.85,0-30.65-12.85-42.02-23.73c-10.86-10.39-21.25-26.7-21.25-37.57V114.1h68.22v293.15
			c0,8.41,3.47,10.88,11.87,10.88h149.79c13.34,0,15.32,11.38,15.32,30.15c0,19.29-1.98,30.16-15.32,30.16H2558.3z"/>
		<path class="st4" d="M2819.36,478.44h-69.21l133.97-364.34h52.39l133.49,364.34h-69.71l-24.72-73.16h-130.02L2819.36,478.44z
			 M2865.82,344.96h88.98l-43.5-125.06L2865.82,344.96z"/>
		<path class="st4" d="M3106.11,114.1h161.64c65.25,0,106.78,39.06,106.78,99.87c0,32.13-14.33,56.34-35.09,71.67
			c24.23,13.35,43,38.56,43,81.56c0,63.77-40.52,111.23-112.21,111.23h-100.85c-12.85,0-30.65-12.85-42.03-23.73
			c-10.86-10.39-21.25-26.7-21.25-37.57V114.1z M3174.33,257.96h90.47c28.17,0,41.53-15.33,41.53-44.49
			c0-24.72-19.29-39.05-45.48-39.05h-86.52V257.96z M3263.8,418.13c33.13,0,50.92-17.8,50.92-50.92c0-34.59-15.33-49.44-46.97-49.44
			h-93.43v90.96c0,6.93,2.97,9.4,9.4,9.4H3263.8z"/>
	</g>
</g>
</svg>
